<svg width="34" height="51" viewBox="0 0 34 51" fill="none" xmlns="http://www.w3.org/2000/svg">
<path d="M0.2 50.5V29.728L7.616 22.312H21.332L23.528 20.116V12.484L21.332 10.288H12.548L10.352 12.484V17.632H0.2V7.516L7.616 0.0999966H26.264L33.68 7.516V25.084L26.264 32.5H12.548L10.352 34.696V40.312H33.68V50.5H0.2ZM3.08 47.728H30.656V43.12H7.724V33.22L11.36 29.584H24.86L30.944 23.5V8.74L24.932 2.728H9.128L3.08 8.74V14.896H7.724V10.972L11.36 7.336H22.664L26.336 10.972V21.268L22.592 24.976H9.128L3.08 30.988V47.728Z" fill="#919191"/>
</svg>
