<svg width="34" height="51" viewBox="0 0 34 51" fill="none" xmlns="http://www.w3.org/2000/svg">
<path d="M7.616 50.5L0.2 43.084V33.328H10.352V38.116L12.548 40.312H21.08L23.276 38.116V32.608L21.08 30.412H13.304V20.26H21.044L23.276 17.848V12.484L21.08 10.288H12.548L10.352 12.484V17.272H0.2V7.516L7.616 0.0999966H26.012L33.428 7.516V23.032L31.16 25.3L33.428 27.64V43.084L26.012 50.5H7.616ZM8.984 47.62H24.68L30.692 41.608V29.08L26.912 25.336L30.692 21.52V8.812L24.68 2.8H8.984L2.936 8.812V14.824H7.58V11.044L11.216 7.444H22.412L26.084 11.044V19.216L22.34 22.996H15.644V27.604H22.34L26.084 31.312V39.376L22.412 43.012H11.216L7.58 39.376V35.74H2.936V41.608L8.984 47.62Z" fill="#919191"/>
</svg>
