<svg width="34" height="51" viewBox="0 0 34 51" fill="none" xmlns="http://www.w3.org/2000/svg">
<path d="M7.616 50.5L0.2 43.084V34.012H10.352V38.116L12.548 40.312H21.548L23.744 38.116V27.352L21.548 25.156H12.908L9.812 28.612H0.2V0.0999966H33.716V10.288H10.352V16.048L11.432 14.968H26.48L33.896 22.42V43.084L26.48 50.5H7.616ZM9.164 47.764H25.112L31.16 41.716V23.716L25.112 17.632H11.756L8.732 20.656H7.652V7.444H30.944V2.8H3.044V25.84H8.84L12.26 22.276H22.844L26.552 25.912V39.484L22.844 43.156H11.432L7.544 39.304V36.208H2.936V41.536L9.164 47.764Z" fill="#919191"/>
</svg>
