<svg width="34" height="51" viewBox="0 0 34 51" fill="none" xmlns="http://www.w3.org/2000/svg">
<path d="M7.616 50.5L0.2 43.084V7.516L7.616 0.0999966H26.12L33.572 7.516V15.184H23.384V12.484L21.188 10.288H12.548L10.352 12.484V17.452L11.432 16.372H26.336L33.752 23.788V43.084L26.336 50.5H7.616ZM11.396 43.048L7.58 39.304V28.756L12.692 23.752H22.7L26.408 27.388V39.412L22.7 43.048H11.396ZM12.548 40.312H21.404L23.6 38.116V28.756L21.404 26.56H13.268L10.352 29.44V38.116L12.548 40.312ZM9.128 47.692H24.968L31.016 41.644V25.156L24.968 19.108H11.972L7.58 23.464V11.044L11.288 7.444H22.484L26.12 11.044V13.06H30.764V8.812L24.716 2.8H9.02L2.972 8.812V41.536L9.128 47.692Z" fill="#919191"/>
</svg>
