<svg width="102" height="35" viewBox="0 0 102 35" fill="none" xmlns="http://www.w3.org/2000/svg">
<path d="M92.8223 1.43933C96.2756 0.178544 98.2138 0.0636728 101.667 1.43933V33.6152C98.2113 34.7192 96.2769 34.7987 92.8223 33.6152V1.43933Z" fill="black"/>
<path d="M88.409 24.5874H70.7204C70.8794 26.0213 71.2623 27.0895 71.8693 27.7918C72.7219 28.8014 73.8347 29.3062 75.2076 29.3062C76.0747 29.3062 76.8984 29.0868 77.6788 28.6478C78.1557 28.3698 78.6687 27.8796 79.2179 27.1773C80.2511 25.8558 87.6503 26.1969 87.9104 27.9893C86.5808 30.3305 84.9767 32.0132 83.0981 33.0374C81.2194 34.047 78.5242 34.5518 75.0125 34.5518C71.9632 34.5518 69.5643 34.1202 67.8157 33.2569C66.0671 32.379 64.6147 30.9962 63.4586 29.1087C62.3169 27.2065 61.7461 24.9751 61.7461 22.4145C61.7461 18.7712 62.895 15.8228 65.1928 13.5695C67.505 11.3161 70.6915 10.1895 74.7524 10.1895C78.0473 10.1895 80.6485 10.6943 82.5561 11.7039C84.4637 12.7135 85.9161 14.1767 86.9132 16.0935C87.9104 18.0103 88.409 20.5051 88.409 23.5778V24.5874ZM79.4346 20.3075C79.2612 18.5809 78.7988 17.3445 78.0473 16.5983C77.3103 15.8521 76.3348 15.4789 75.1209 15.4789C73.7191 15.4789 72.5991 16.0423 71.7609 17.1689C71.2262 17.8713 70.8866 18.9175 70.7421 20.3075H79.4346Z" fill="black"/>
<path d="M32.1504 22.4365C32.1504 18.8809 33.3354 15.9545 35.7054 13.6573C38.0755 11.3454 41.2765 10.1895 45.3084 10.1895C49.9184 10.1895 53.4012 11.5429 55.7568 14.2498C57.6499 16.43 58.5965 19.115 58.5965 22.3048C58.5965 25.8896 57.4187 28.8307 55.0631 31.1279C52.722 33.4105 49.4776 34.5518 45.3301 34.5518C41.6305 34.5518 38.6391 33.6007 36.3558 31.6986C33.5522 29.3428 32.1504 26.2554 32.1504 22.4365ZM40.9947 22.4145C40.9947 24.4923 41.4065 26.0287 42.2303 27.0236C43.0684 28.0186 44.1162 28.5161 45.3734 28.5161C46.6452 28.5161 47.6857 28.0259 48.4949 27.0456C49.3187 26.0652 49.7305 24.4923 49.7305 22.3267C49.7305 20.3075 49.3187 18.8077 48.4949 17.8274C47.6712 16.8324 46.6524 16.3349 45.4385 16.3349C44.1523 16.3349 43.0901 16.8397 42.2519 17.8493C41.4137 18.8443 40.9947 20.366 40.9947 22.4145Z" fill="black"/>
<path d="M27.9506 33.3395C23.6274 34.5781 21.2309 34.6662 17.7624 33.3395L0.333984 4.21434C4.45001 1.81831 6.68506 1.57049 10.4572 4.21434L27.9506 33.3395ZM0.333984 33.3395V6.9798L8.67968 20.829V33.3395C5.74353 34.5637 3.95946 34.7212 0.333984 33.3395ZM27.9506 4.21434V30.574L19.6049 16.6589V4.21434C23.0408 2.07327 24.8637 2.03981 27.9506 4.21434Z" fill="black"/>
</svg>
