<svg width="32" height="32" viewBox="0 0 32 32" fill="none" xmlns="http://www.w3.org/2000/svg">
<path d="M14.6671 21.5663V6.66634C14.6671 6.28856 14.7948 5.9719 15.0504 5.71634C15.3059 5.46079 15.6226 5.33301 16.0004 5.33301C16.3782 5.33301 16.6948 5.46079 16.9504 5.71634C17.2059 5.9719 17.3337 6.28856 17.3337 6.66634V21.5663L23.8671 15.033C24.1337 14.7663 24.4448 14.6386 24.8004 14.6497C25.1559 14.6608 25.4671 14.7997 25.7337 15.0663C25.9782 15.333 26.1059 15.6441 26.1171 15.9997C26.1282 16.3552 26.0004 16.6663 25.7337 16.933L16.9337 25.733C16.8004 25.8663 16.6559 25.9608 16.5004 26.0163C16.3448 26.0719 16.1782 26.0997 16.0004 26.0997C15.8226 26.0997 15.6559 26.0719 15.5004 26.0163C15.3448 25.9608 15.2004 25.8663 15.0671 25.733L6.26706 16.933C6.02261 16.6886 5.90039 16.383 5.90039 16.0163C5.90039 15.6497 6.02261 15.333 6.26706 15.0663C6.53372 14.7997 6.85039 14.6663 7.21706 14.6663C7.58372 14.6663 7.90039 14.7997 8.16706 15.0663L14.6671 21.5663Z" fill="#5B5B5B"/>
</svg>
