<svg width="65" height="64" viewBox="0 0 65 64" fill="none" xmlns="http://www.w3.org/2000/svg">
<path d="M30.3461 42.0183C30.3461 39.6717 29.7328 37.7037 28.5061 36.1063C27.6368 35.0077 26.4581 34.285 24.9674 33.941C23.5008 33.5997 22.1141 33.5757 20.8608 33.8663C20.4341 31.333 21.1274 28.6503 22.8874 25.8077C24.6474 22.9677 26.9274 20.829 29.7088 19.3997L25.4928 13.333C23.3594 14.389 21.3328 15.7277 19.4661 17.3463C17.5728 18.965 15.8928 20.8263 14.3994 22.9303C12.9061 25.0343 11.7861 27.4103 11.0661 30.1037C10.3461 32.797 10.1461 35.5437 10.4901 38.3703C10.9381 42.1037 12.1434 45.0904 14.1061 47.3037C16.0661 49.5464 18.5114 50.6664 21.4341 50.6664C24.0074 50.6664 26.1434 49.893 27.8341 48.325C29.5088 46.789 30.3407 44.685 30.3407 42.0103L30.3461 42.0183ZM54.6768 42.0183C54.6768 39.6717 54.0634 37.7037 52.8368 36.1063C51.9674 34.9863 50.7834 34.261 49.2981 33.9277C47.8047 33.597 46.4368 33.581 45.1914 33.869C44.7648 31.3623 45.4314 28.669 47.1968 25.8157C48.9567 22.989 51.2314 20.8557 54.0127 19.4157L49.8074 13.333C47.6741 14.389 45.6607 15.7277 43.7808 17.3463C41.8702 18.989 40.1733 20.865 38.7301 22.9303C37.2474 25.037 36.1434 27.4103 35.4234 30.1037C34.6949 32.7954 34.4983 35.6034 34.8448 38.3703C35.2874 42.1037 36.4874 45.0904 38.4448 47.3037C40.3994 49.5277 42.8368 50.6423 45.7594 50.6423C48.3381 50.6423 50.4741 49.869 52.1648 48.3037C53.8368 46.7677 54.6768 44.6637 54.6768 41.989V42.0183Z" fill="#E9E9E9"/>
</svg>
