<svg width="76" height="26" viewBox="0 0 76 26" fill="none" xmlns="http://www.w3.org/2000/svg">
<path d="M69.3672 0.732693C71.9572 -0.201223 73.4108 -0.286313 76.0004 0.732693V24.5667C73.409 25.3845 71.9582 25.4433 69.3672 24.5667V0.732693Z" fill="black"/>
<path d="M66.0557 17.879H52.7893C52.9086 18.9412 53.1958 19.7324 53.651 20.2527C54.2905 21.0005 55.125 21.3744 56.1547 21.3744C56.805 21.3744 57.4228 21.2119 58.0081 20.8867C58.3658 20.6808 58.7505 20.3177 59.1624 19.7974C59.9374 18.8185 65.4867 19.0713 65.6818 20.399C64.6847 22.1331 63.4816 23.3796 62.0726 24.1383C60.6636 24.8861 58.6422 25.2601 56.0084 25.2601C53.7215 25.2601 51.9223 24.9403 50.6108 24.3009C49.2993 23.6505 48.21 22.6263 47.343 21.2281C46.4867 19.8191 46.0586 18.1662 46.0586 16.2695C46.0586 13.5707 46.9203 11.3867 48.6436 9.71757C50.3778 8.04844 52.7677 7.21387 55.8133 7.21387C58.2845 7.21387 60.2354 7.5878 61.6661 8.33566C63.0968 9.08352 64.1861 10.1674 64.9339 11.5872C65.6818 13.0071 66.0557 14.8551 66.0557 17.1311V17.879ZM59.325 14.7087C59.1949 13.4298 58.8481 12.5139 58.2845 11.9612C57.7317 11.4084 57.0001 11.132 56.0897 11.132C55.0383 11.132 54.1984 11.5493 53.5697 12.3839C53.1687 12.9041 52.914 13.6791 52.8056 14.7087H59.325Z" fill="black"/>
<path d="M23.8613 16.2857C23.8613 13.652 24.7501 11.4843 26.5276 9.78261C28.3051 8.07011 30.7059 7.21387 33.7298 7.21387C37.1873 7.21387 39.7994 8.21643 41.5661 10.2216C42.986 11.8365 43.6959 13.8254 43.6959 16.1882C43.6959 18.8436 42.8125 21.0222 41.0459 22.7238C39.29 24.4147 36.8568 25.2601 33.7461 25.2601C30.9714 25.2601 28.7278 24.5556 27.0153 23.1466C24.9127 21.4015 23.8613 19.1146 23.8613 16.2857ZM30.4945 16.2695C30.4945 17.8086 30.8034 18.9466 31.4212 19.6836C32.0499 20.4207 32.8357 20.7892 33.7786 20.7892C34.7324 20.7892 35.5128 20.4261 36.1197 19.6999C36.7375 18.9737 37.0464 17.8086 37.0464 16.2045C37.0464 14.7087 36.7375 13.5978 36.1197 12.8716C35.5019 12.1346 34.7378 11.7661 33.8274 11.7661C32.8628 11.7661 32.0661 12.14 31.4375 12.8879C30.8088 13.6249 30.4945 14.7521 30.4945 16.2695Z" fill="black"/>
<path d="M20.7125 24.3627C17.4701 25.2802 15.6727 25.3454 13.0713 24.3627L0 2.78851C3.08702 1.01367 4.76331 0.830097 7.59241 2.78851L20.7125 24.3627ZM0 24.3627V4.837L6.25927 15.0957V24.3627C4.05716 25.2695 2.71911 25.3862 0 24.3627ZM20.7125 2.78851V22.3142L14.4532 12.0067V2.78851C17.0301 1.20253 18.3973 1.17774 20.7125 2.78851Z" fill="black"/>
</svg>
