<svg width="64" height="22" viewBox="0 0 64 22" fill="none" xmlns="http://www.w3.org/2000/svg">
<path d="M57.791 0.879862C59.9206 0.109382 61.1158 0.0391824 63.245 0.879862V20.5429C61.1142 21.2176 59.9214 21.2661 57.791 20.5429V0.879862Z" fill="black"/>
<path d="M55.069 15.0253H44.1611C44.2592 15.9016 44.4953 16.5544 44.8696 16.9836C45.3954 17.6005 46.0816 17.909 46.9282 17.909C47.4629 17.909 47.9709 17.7749 48.4521 17.5067C48.7462 17.3368 49.0626 17.0372 49.4012 16.608C50.0384 15.8004 54.6012 16.0089 54.7616 17.1043C53.9417 18.535 52.9525 19.5633 51.794 20.1892C50.6355 20.8062 48.9734 21.1147 46.8079 21.1147C44.9275 21.1147 43.4482 20.8509 42.3699 20.3233C41.2916 19.7868 40.3959 18.9418 39.683 17.7883C38.979 16.6259 38.627 15.2623 38.627 13.6974C38.627 11.4709 39.3354 9.66916 40.7524 8.29212C42.1783 6.91508 44.1433 6.22656 46.6475 6.22656C48.6794 6.22656 50.2835 6.53506 51.4598 7.15204C52.6362 7.76902 53.5318 8.66321 54.1467 9.83458C54.7616 11.006 55.069 12.5305 55.069 14.4083V15.0253ZM49.5349 12.4098C49.4279 11.3547 49.1428 10.5991 48.6794 10.1431C48.2249 9.68704 47.6233 9.45903 46.8747 9.45903C46.0103 9.45903 45.3196 9.80329 44.8028 10.4918C44.473 10.921 44.2636 11.5604 44.1745 12.4098H49.5349Z" fill="black"/>
<path d="M20.375 13.7109C20.375 11.538 21.1058 9.74964 22.5673 8.34577C24.0288 6.93297 26.0027 6.22656 28.4891 6.22656C31.3319 6.22656 33.4797 7.05368 34.9323 8.70792C36.0997 10.0402 36.6834 11.6811 36.6834 13.6304C36.6834 15.8211 35.9571 17.6184 34.5045 19.0223C33.0608 20.4172 31.0601 21.1147 28.5025 21.1147C26.2211 21.1147 24.3764 20.5335 22.9683 19.371C21.2394 17.9314 20.375 16.0447 20.375 13.7109ZM25.829 13.6974C25.829 14.9672 26.0829 15.9061 26.5909 16.5141C27.1078 17.1222 27.7539 17.4262 28.5292 17.4262C29.3134 17.4262 29.9551 17.1266 30.4541 16.5275C30.9621 15.9284 31.2161 14.9672 31.2161 13.6438C31.2161 12.4098 30.9621 11.4933 30.4541 10.8942C29.9462 10.2861 29.3179 9.98212 28.5693 9.98212C27.7762 9.98212 27.1212 10.2906 26.6043 10.9076C26.0874 11.5156 25.829 12.4456 25.829 13.6974Z" fill="black"/>
<path d="M17.7861 20.3743C15.1202 21.1312 13.6423 21.1851 11.5034 20.3743L0.755859 2.5756C3.29407 1.11135 4.67236 0.959904 6.99851 2.5756L17.7861 20.3743ZM0.755859 20.3743V4.2656L5.90237 12.729V20.3743C4.09174 21.1224 2.99157 21.2187 0.755859 20.3743ZM17.7861 2.5756V18.6843L12.6396 10.1806V2.5756C14.7584 1.26716 15.8825 1.24671 17.7861 2.5756Z" fill="black"/>
</svg>
