<svg width="72" height="72" viewBox="0 0 72 72" fill="none" xmlns="http://www.w3.org/2000/svg">
<path d="M38.4239 24.729C38.4239 27.369 39.1139 29.583 40.4939 31.38C41.4719 32.616 42.7979 33.429 44.4749 33.816C46.1249 34.2 47.6849 34.227 49.0949 33.9C49.5749 36.75 48.7949 39.768 46.8149 42.966C44.8349 46.161 42.2699 48.567 39.1409 50.175L43.8839 57C46.2839 55.812 48.5639 54.306 50.6639 52.485C52.7939 50.664 54.6839 48.57 56.3639 46.203C58.0439 43.836 59.3039 41.163 60.1139 38.133C60.9239 35.103 61.1489 32.013 60.7619 28.833C60.2579 24.633 58.9019 21.273 56.6939 18.783C54.4889 16.26 51.7379 15 48.4499 15C45.5549 15 43.1519 15.87 41.2499 17.634C39.3659 19.362 38.4299 21.729 38.4299 24.738L38.4239 24.729ZM11.0519 24.729C11.0519 27.369 11.7419 29.583 13.1219 31.38C14.0999 32.64 15.4319 33.456 17.1029 33.831C18.7829 34.203 20.3219 34.221 21.7229 33.897C22.2029 36.717 21.4529 39.747 19.4669 42.957C17.4869 46.137 14.9279 48.537 11.7989 50.157L16.5299 57C18.9299 55.812 21.1949 54.306 23.3099 52.485C25.4593 50.637 27.3682 48.5265 28.9919 46.203C30.6599 43.833 31.9019 41.163 32.7119 38.133C33.5315 35.1048 33.7526 31.9458 33.3629 28.833C32.8649 24.633 31.5149 21.273 29.3129 18.783C27.1139 16.281 24.3719 15.027 21.0839 15.027C18.1829 15.027 15.7799 15.897 13.8779 17.658C11.9969 19.386 11.0519 21.753 11.0519 24.762L11.0519 24.729Z" fill="#E9E9E9"/>
</svg>
