<svg width="72" height="72" viewBox="0 0 72 72" fill="none" xmlns="http://www.w3.org/2000/svg">
<path d="M33.5761 47.271C33.5761 44.631 32.8861 42.417 31.5061 40.62C30.5281 39.384 29.2021 38.571 27.5251 38.184C25.8751 37.8 24.3151 37.773 22.9051 38.1C22.4251 35.25 23.2051 32.232 25.1851 29.034C27.1651 25.839 29.7301 23.433 32.8591 21.825L28.1161 15C25.7161 16.188 23.4361 17.694 21.3361 19.515C19.2061 21.336 17.3161 23.43 15.6361 25.797C13.9561 28.164 12.6961 30.837 11.8861 33.867C11.0761 36.897 10.8511 39.987 11.2381 43.167C11.7421 47.367 13.0981 50.727 15.3061 53.217C17.5111 55.74 20.2621 57 23.5501 57C26.4451 57 28.8481 56.13 30.7501 54.366C32.6341 52.638 33.5701 50.271 33.5701 47.262L33.5761 47.271ZM60.9481 47.271C60.9481 44.631 60.2581 42.417 58.8781 40.62C57.9001 39.36 56.5681 38.544 54.8971 38.169C53.2171 37.797 51.6781 37.779 50.2771 38.103C49.7971 35.283 50.5471 32.253 52.5331 29.043C54.5131 25.863 57.0721 23.463 60.2011 21.843L55.4701 15C53.0701 16.188 50.8051 17.694 48.6901 19.515C46.5407 21.363 44.6318 23.4735 43.0081 25.797C41.3401 28.167 40.0981 30.837 39.2881 33.867C38.4685 36.8952 38.2474 40.0542 38.6371 43.167C39.1351 47.367 40.4851 50.727 42.6871 53.217C44.8861 55.719 47.6281 56.973 50.9161 56.973C53.8171 56.973 56.2201 56.103 58.1221 54.342C60.0031 52.614 60.9481 50.247 60.9481 47.238V47.271Z" fill="#E9E9E9"/>
</svg>
