<svg width="80" height="80" viewBox="0 0 80 80" fill="none" xmlns="http://www.w3.org/2000/svg">
<path d="M54.1333 38.3669L59.3667 33.1335L46.8667 20.6335L41.6333 25.8669L27.8333 12.1002C25.2333 9.50021 21 9.50021 18.4 12.1002L12.0667 18.4335C9.46667 21.0335 9.46667 25.2669 12.0667 27.8669L25.8333 41.6335L10.5 57.0002C10.1667 57.3335 10 57.7335 10 58.2002V68.3335C10 69.2669 10.7333 70.0002 11.6667 70.0002H21.8C22.2333 70.0002 22.6667 69.8335 22.9667 69.5002L38.3667 54.1002L52.1333 67.8669C56.5333 72.2669 61.3333 68.1002 61.5667 67.8669L67.9 61.5335C70.5 58.9335 70.5 54.7002 67.9 52.1002L54.1333 38.3669ZM30.6 36.9002L16.8 23.1335L23.1 16.8002L27.3333 21.0335L25.7667 22.6669C25.1434 23.2901 24.7933 24.1355 24.7933 25.0169C24.7933 25.8983 25.1434 26.7436 25.7667 27.3669C26.3899 27.9901 27.2352 28.3403 28.1167 28.3403C28.9981 28.3403 29.8434 27.9901 30.4667 27.3669L32.0667 25.7669L36.9 30.6002L30.6 36.9002ZM56.8667 63.2002L43.1 49.4335L49.4333 43.1002L54.2667 47.9335L52.6667 49.5335C52.3581 49.8421 52.1133 50.2085 51.9462 50.6117C51.7792 51.0149 51.6933 51.4471 51.6933 51.8835C51.6933 52.32 51.7792 52.7521 51.9462 53.1554C52.1133 53.5586 52.3581 53.9249 52.6667 54.2335C52.9753 54.5421 53.3416 54.7869 53.7449 54.954C54.1481 55.121 54.5802 55.2069 55.0167 55.2069C55.4531 55.2069 55.8853 55.121 56.2885 54.954C56.6917 54.7869 57.0581 54.5421 57.3667 54.2335L58.9667 52.6335L63.2 56.8669L56.8667 63.2002ZM69.0333 23.4669C69.3423 23.1585 69.5875 22.7922 69.7548 22.389C69.922 21.9857 70.0081 21.5534 70.0081 21.1169C70.0081 20.6803 69.922 20.248 69.7548 19.8448C69.5875 19.4416 69.3423 19.0753 69.0333 18.7669L61.2333 10.9669C59.6667 9.40021 57.5 10.0002 56.5333 10.9669L50.4333 17.0669L62.9333 29.5669L69.0333 23.4669Z" fill="white"/>
</svg>
