<svg width="80" height="80" viewBox="0 0 80 80" fill="none" xmlns="http://www.w3.org/2000/svg">
<path fill-rule="evenodd" clip-rule="evenodd" d="M42.219 23.3011L56.444 37.5293L50.2744 56.0412L17.3721 65.8235L33.9679 49.2277C34.9442 48.2514 34.9442 46.6685 33.9679 45.6922C32.9916 44.7159 31.4086 44.7159 30.4323 45.6922L14.3496 61.7749L24.7831 30.48L42.219 23.3011ZM24.8555 30.2627C24.8554 30.2631 24.8552 30.2635 24.8551 30.264L24.8555 30.2627ZM7.47185 66.5956L20.1113 28.6839C20.1115 28.6835 20.1116 28.683 20.1118 28.6826C20.3156 28.0706 20.6487 27.5096 21.0884 27.0376C21.5284 26.5652 22.0648 26.1931 22.6613 25.9464L40.6191 18.5526C40.6188 18.5527 40.6194 18.5525 40.6191 18.5526C41.4403 18.2136 42.3442 18.125 43.2155 18.2984C44.0871 18.472 44.8878 18.8996 45.5166 19.5276L60.1977 34.212C60.1976 34.2119 60.1978 34.2121 60.1977 34.212C60.7885 34.8028 61.2035 35.5468 61.3956 36.36C61.5876 37.1734 61.5494 38.0242 61.2852 38.817L54.9352 57.8704L54.9347 57.872C54.7056 58.5577 54.3148 59.1781 53.7952 59.6807C53.2756 60.1833 52.6426 60.5533 51.9497 60.7595L13.0226 72.3329C12.2335 72.5673 11.3945 72.5809 10.5984 72.372C9.80219 72.163 9.07858 71.7397 8.5063 71.1481C7.93401 70.5564 7.53495 69.8192 7.35255 69.0165C7.17018 68.2139 7.2115 67.3764 7.47185 66.5956ZM56.6621 37.7475C56.6618 37.7472 56.6616 37.7469 56.6613 37.7467L56.6621 37.7475Z" fill="white"/>
<path d="M61.3433 10.6065L69.2233 18.4865C69.8155 19.0531 70.2885 19.7322 70.6146 20.484C70.9408 21.2358 71.1134 22.0452 71.1225 22.8647C71.1315 23.6842 70.9768 24.4972 70.6674 25.2561C70.358 26.0149 69.9001 26.7043 69.3206 27.2838C68.7411 27.8633 68.0517 28.3212 67.2928 28.6306C66.534 28.94 65.721 29.0948 64.9015 29.0857C64.082 29.0766 63.2726 28.904 62.5208 28.5779C61.769 28.2517 61.0899 27.7787 60.5233 27.1865L52.64 19.3065C51.5281 18.1444 50.9155 16.593 50.9332 14.9847C50.951 13.3764 51.5978 11.839 52.7351 10.7017C53.8724 9.56437 55.4099 8.91757 57.0182 8.89979C58.6265 8.88201 60.1811 9.49465 61.3433 10.6065Z" fill="white" stroke="white" stroke-width="1.5" stroke-linecap="round" stroke-linejoin="round"/>
<path fill-rule="evenodd" clip-rule="evenodd" d="M34.6897 35.7146C35.5499 35.3627 36.4717 35.1855 37.4012 35.1936C38.3306 35.2017 39.2492 35.3948 40.1032 35.7617C40.9572 36.1285 41.7296 36.6618 42.3753 37.3304C43.6505 38.6506 44.356 40.4188 44.3401 42.2542C44.3241 44.0896 43.5879 45.8453 42.2901 47.1431C40.9922 48.441 39.2365 49.1771 37.4012 49.1931C35.5658 49.209 33.7976 48.5035 32.4773 47.2284C31.8088 46.5827 31.2755 45.8102 30.9086 44.9562C30.5418 44.1022 30.3487 43.1836 30.3406 42.2542C30.3325 41.3247 30.5096 40.403 30.8616 39.5427C31.2136 38.6824 31.7333 37.9009 32.3906 37.2436C33.0478 36.5864 33.8294 36.0666 34.6897 35.7146ZM37.3664 39.1935C36.9681 39.19 36.573 39.2659 36.2043 39.4168C35.8356 39.5676 35.5007 39.7904 35.219 40.072C34.9373 40.3537 34.7146 40.6887 34.5637 41.0574C34.4129 41.426 34.337 41.8211 34.3404 42.2194C34.3439 42.6178 34.4267 43.0114 34.5839 43.3774C34.7411 43.7435 34.9697 44.0745 35.2562 44.3512C35.822 44.8977 36.5798 45.2001 37.3664 45.1932C38.153 45.1864 38.9054 44.8709 39.4617 44.3147C40.0179 43.7585 40.3334 43.006 40.3402 42.2194C40.3471 41.4328 40.0447 40.675 39.4982 40.1092C39.2215 39.8227 38.8904 39.5941 38.5244 39.4369C38.1584 39.2797 37.7647 39.1969 37.3664 39.1935Z" fill="white"/>
</svg>
