<svg width="56" height="56" viewBox="0 0 56 56" fill="none" xmlns="http://www.w3.org/2000/svg">
<path d="M37.8933 26.857L41.5567 23.1937L32.8067 14.4437L29.1433 18.107L19.4833 8.47034C17.6633 6.65034 14.7 6.65034 12.88 8.47034L8.44667 12.9037C6.62667 14.7237 6.62667 17.687 8.44667 19.507L18.0833 29.1437L7.35 39.9003C7.11667 40.1337 7 40.4137 7 40.7403V47.8337C7 48.487 7.51333 49.0003 8.16667 49.0003H15.26C15.5633 49.0003 15.8667 48.8837 16.0767 48.6503L26.8567 37.8703L36.4933 47.507C39.5733 50.587 42.9333 47.6703 43.0967 47.507L47.53 43.0737C49.35 41.2537 49.35 38.2903 47.53 36.4703L37.8933 26.857ZM21.42 25.8303L11.76 16.1937L16.17 11.7603L19.1333 14.7237L18.0367 15.867C17.6004 16.3033 17.3553 16.895 17.3553 17.512C17.3553 18.129 17.6004 18.7207 18.0367 19.157C18.4729 19.5933 19.0647 19.8384 19.6817 19.8384C20.2987 19.8384 20.8904 19.5933 21.3267 19.157L22.4467 18.037L25.83 21.4203L21.42 25.8303ZM39.8067 44.2403L30.17 34.6037L34.6033 30.1703L37.9867 33.5537L36.8667 34.6737C36.6506 34.8897 36.4793 35.1462 36.3624 35.4284C36.2455 35.7107 36.1853 36.0132 36.1853 36.3187C36.1853 36.6242 36.2455 36.9267 36.3624 37.2089C36.4793 37.4912 36.6506 37.7477 36.8667 37.9637C37.0827 38.1797 37.3391 38.3511 37.6214 38.468C37.9036 38.5849 38.2062 38.6451 38.5117 38.6451C38.8172 38.6451 39.1197 38.5849 39.4019 38.468C39.6842 38.3511 39.9406 38.1797 40.1567 37.9637L41.2767 36.8437L44.24 39.807L39.8067 44.2403ZM48.3233 16.427C48.5396 16.2111 48.7113 15.9547 48.8283 15.6725C48.9454 15.3902 49.0057 15.0876 49.0057 14.782C49.0057 14.4764 48.9454 14.1738 48.8283 13.8916C48.7113 13.6093 48.5396 13.3529 48.3233 13.137L42.8633 7.67701C41.7667 6.58034 40.25 7.00034 39.5733 7.67701L35.3033 11.947L44.0533 20.697L48.3233 16.427Z" fill="#C1C1C1"/>
</svg>
