<svg width="80" height="80" viewBox="0 0 80 80" fill="none" xmlns="http://www.w3.org/2000/svg">
<path d="M25.6171 32.3054L16.1834 40.0003L25.6171 47.6952C25.9299 47.9462 26.1889 48.2554 26.3791 48.6048C26.5693 48.9543 26.687 49.3372 26.7253 49.7314C26.7636 50.1256 26.7219 50.5233 26.6024 50.9016C26.4829 51.2799 26.2881 51.6313 26.0292 51.9356C25.7703 52.2398 25.4525 52.4909 25.094 52.6743C24.7355 52.8577 24.3435 52.9698 23.9405 53.0042C23.5375 53.0385 23.1316 52.9945 22.7461 52.8745C22.3606 52.7545 22.0032 52.561 21.6945 52.3052L9.43633 42.3053C9.09109 42.0238 8.81331 41.6713 8.62269 41.273C8.43206 40.8747 8.33325 40.4402 8.33325 40.0003C8.33325 39.5604 8.43206 39.126 8.62269 38.7276C8.81331 38.3293 9.09109 37.9769 9.43633 37.6954L21.6945 27.6955C22.3198 27.1938 23.1223 26.9544 23.9272 27.0293C24.7321 27.1043 25.4741 27.4876 25.9916 28.0958C26.5091 28.7039 26.7601 29.4876 26.6899 30.2761C26.6198 31.0646 26.2341 31.794 25.6171 32.3054ZM70.5635 37.6954L58.3054 27.6955C57.9967 27.4396 57.6392 27.2461 57.2538 27.1262C56.8683 27.0062 56.4623 26.9621 56.0594 26.9965C55.6564 27.0308 55.2643 27.1429 54.9058 27.3263C54.5474 27.5097 54.2295 27.7608 53.9706 28.0651C53.7117 28.3693 53.5169 28.7207 53.3974 29.0991C53.278 29.4774 53.2362 29.8751 53.2745 30.2693C53.3128 30.6635 53.4305 31.0464 53.6207 31.3958C53.8109 31.7453 54.0699 32.0544 54.3828 32.3054L63.8164 40.0003L54.3828 47.6952C54.0699 47.9462 53.8109 48.2554 53.6207 48.6048C53.4305 48.9543 53.3128 49.3372 53.2745 49.7314C53.2362 50.1256 53.278 50.5233 53.3974 50.9016C53.5169 51.2799 53.7117 51.6313 53.9706 51.9356C54.2295 52.2398 54.5474 52.4909 54.9058 52.6743C55.2643 52.8577 55.6564 52.9698 56.0594 53.0042C56.4623 53.0385 56.8683 52.9945 57.2538 52.8745C57.6392 52.7545 57.9967 52.561 58.3054 52.3052L70.5635 42.3053C70.9087 42.0238 71.1865 41.6713 71.3771 41.273C71.5678 40.8747 71.6666 40.4402 71.6666 40.0003C71.6666 39.5604 71.5678 39.126 71.3771 38.7276C71.1865 38.3293 70.9087 37.9769 70.5635 37.6954ZM49.219 15.1806C48.8408 15.046 48.4391 14.9856 48.0369 15.0029C47.6348 15.0202 47.2401 15.1149 46.8754 15.2816C46.5106 15.4483 46.183 15.6837 45.9112 15.9744C45.6394 16.265 45.4288 16.6053 45.2913 16.9756L28.9472 60.975C28.6701 61.7226 28.7076 62.5473 29.0515 63.2678C29.3953 63.9883 30.0173 64.5457 30.7808 64.8175C31.116 64.9387 31.4705 65.0005 31.8278 65C32.457 65.0001 33.071 64.8106 33.5864 64.4573C34.1017 64.104 34.4935 63.6039 34.7085 63.025L51.0527 19.0256C51.1902 18.6553 51.2519 18.2621 51.2342 17.8684C51.2165 17.4747 51.1198 17.0883 50.9495 16.7313C50.7792 16.3742 50.5388 16.0535 50.2418 15.7874C49.9449 15.5214 49.5974 15.3152 49.219 15.1806Z" fill="white"/>
</svg>
