<svg width="44" height="31" viewBox="0 0 44 31" fill="none" xmlns="http://www.w3.org/2000/svg">
<path fill-rule="evenodd" clip-rule="evenodd" d="M39.1906 0.925199C41.0837 1.43446 42.5744 2.93526 43.0804 4.84034C44 8.29435 44 15.4998 44 15.4998C44 15.4998 44 22.7057 43.0804 26.1593C42.5744 28.0644 41.0837 29.5655 39.1906 30.0744C35.7592 31 21.9998 31 21.9998 31C21.9998 31 8.24079 31 4.80945 30.0744C2.91631 29.5655 1.42556 28.0644 0.919587 26.1593C0 22.7057 0 15.4998 0 15.4998C0 15.4998 0 8.29435 0.919587 4.84034C1.42556 2.93526 2.91631 1.43446 4.80945 0.925199C8.24079 0 21.9998 0 21.9998 0C21.9998 0 35.7592 0 39.1906 0.925199ZM29.0309 15.5002L17.6 22.1428V8.85684L29.0309 15.5002Z" fill="#5B5B5B"/>
</svg>
