<svg width="33" height="23" viewBox="0 0 33 23" fill="none" xmlns="http://www.w3.org/2000/svg">
<path fill-rule="evenodd" clip-rule="evenodd" d="M28.7784 0.946989C30.1306 1.31075 31.1955 2.38275 31.5569 3.74352C32.2137 6.21067 32.2137 11.3574 32.2137 11.3574C32.2137 11.3574 32.2137 16.5045 31.5569 18.9713C31.1955 20.3321 30.1306 21.4044 28.7784 21.7679C26.3275 22.429 16.4993 22.429 16.4993 22.429C16.4993 22.429 6.67143 22.429 4.22048 21.7679C2.86824 21.4044 1.80341 20.3321 1.442 18.9713C0.785156 16.5045 0.785156 11.3574 0.785156 11.3574C0.785156 11.3574 0.785156 6.21067 1.442 3.74352C1.80341 2.38275 2.86824 1.31075 4.22048 0.946989C6.67143 0.286133 16.4993 0.286133 16.4993 0.286133C16.4993 0.286133 26.3275 0.286133 28.7784 0.946989ZM21.5215 11.3577L13.3566 16.1024V6.61244L21.5215 11.3577Z" fill="#5B5B5B"/>
</svg>
