<svg width="29" height="28" viewBox="0 0 29 28" fill="none" xmlns="http://www.w3.org/2000/svg">
<path d="M8.79916 0.428711H20.1992C24.542 0.428711 28.0706 3.95728 28.0706 8.30014V19.7001C28.0706 21.7878 27.2413 23.7899 25.7651 25.2661C24.2889 26.7423 22.2868 27.5716 20.1992 27.5716H8.79916C4.45631 27.5716 0.927734 24.043 0.927734 19.7001V8.30014C0.927734 6.21251 1.75704 4.21038 3.23322 2.7342C4.7094 1.25802 6.71153 0.428711 8.79916 0.428711ZM8.52773 3.143C7.23196 3.143 5.98926 3.65774 5.07301 4.57399C4.15676 5.49024 3.64202 6.73294 3.64202 8.02871V19.9716C3.64202 22.6723 5.82702 24.8573 8.52773 24.8573H20.4706C21.7664 24.8573 23.0091 24.3425 23.9253 23.4263C24.8416 22.51 25.3563 21.2673 25.3563 19.9716V8.02871C25.3563 5.328 23.1713 3.143 20.4706 3.143H8.52773ZM21.6242 5.17871C22.0741 5.17871 22.5056 5.35744 22.8237 5.67558C23.1419 5.99373 23.3206 6.42522 23.3206 6.87514C23.3206 7.32506 23.1419 7.75655 22.8237 8.0747C22.5056 8.39284 22.0741 8.57157 21.6242 8.57157C21.1742 8.57157 20.7427 8.39284 20.4246 8.0747C20.1065 7.75655 19.9277 7.32506 19.9277 6.87514C19.9277 6.42522 20.1065 5.99373 20.4246 5.67558C20.7427 5.35744 21.1742 5.17871 21.6242 5.17871ZM14.4992 7.21443C16.2988 7.21443 18.0248 7.92935 19.2974 9.20192C20.57 10.4745 21.2849 12.2005 21.2849 14.0001C21.2849 15.7998 20.57 17.5258 19.2974 18.7984C18.0248 20.0709 16.2988 20.7859 14.4992 20.7859C12.6995 20.7859 10.9735 20.0709 9.70094 18.7984C8.42837 17.5258 7.71345 15.7998 7.71345 14.0001C7.71345 12.2005 8.42837 10.4745 9.70094 9.20192C10.9735 7.92935 12.6995 7.21443 14.4992 7.21443ZM14.4992 9.92871C13.4194 9.92871 12.3838 10.3577 11.6202 11.1212C10.8567 11.8847 10.4277 12.9203 10.4277 14.0001C10.4277 15.08 10.8567 16.1155 11.6202 16.8791C12.3838 17.6426 13.4194 18.0716 14.4992 18.0716C15.579 18.0716 16.6146 17.6426 17.3781 16.8791C18.1416 16.1155 18.5706 15.08 18.5706 14.0001C18.5706 12.9203 18.1416 11.8847 17.3781 11.1212C16.6146 10.3577 15.579 9.92871 14.4992 9.92871Z" fill="#5B5B5B"/>
</svg>
