<svg width="38" height="38" viewBox="0 0 38 38" fill="none" xmlns="http://www.w3.org/2000/svg">
<path d="M11.02 0H26.98C33.06 0 38 4.94 38 11.02V26.98C38 29.9027 36.839 32.7057 34.7723 34.7723C32.7057 36.839 29.9027 38 26.98 38H11.02C4.94 38 0 33.06 0 26.98V11.02C0 8.09731 1.16103 5.29433 3.22768 3.22768C5.29433 1.16103 8.09731 0 11.02 0ZM10.64 3.8C8.82592 3.8 7.08614 4.52064 5.80339 5.80339C4.52064 7.08614 3.8 8.82592 3.8 10.64V27.36C3.8 31.141 6.859 34.2 10.64 34.2H27.36C29.1741 34.2 30.9139 33.4794 32.1966 32.1966C33.4794 30.9139 34.2 29.1741 34.2 27.36V10.64C34.2 6.859 31.141 3.8 27.36 3.8H10.64ZM28.975 6.65C29.6049 6.65 30.209 6.90022 30.6544 7.34562C31.0998 7.79102 31.35 8.39511 31.35 9.025C31.35 9.65489 31.0998 10.259 30.6544 10.7044C30.209 11.1498 29.6049 11.4 28.975 11.4C28.3451 11.4 27.741 11.1498 27.2956 10.7044C26.8502 10.259 26.6 9.65489 26.6 9.025C26.6 8.39511 26.8502 7.79102 27.2956 7.34562C27.741 6.90022 28.3451 6.65 28.975 6.65ZM19 9.5C21.5196 9.5 23.9359 10.5009 25.7175 12.2825C27.4991 14.0641 28.5 16.4804 28.5 19C28.5 21.5196 27.4991 23.9359 25.7175 25.7175C23.9359 27.4991 21.5196 28.5 19 28.5C16.4804 28.5 14.0641 27.4991 12.2825 25.7175C10.5009 23.9359 9.5 21.5196 9.5 19C9.5 16.4804 10.5009 14.0641 12.2825 12.2825C14.0641 10.5009 16.4804 9.5 19 9.5ZM19 13.3C17.4883 13.3 16.0384 13.9005 14.9695 14.9695C13.9005 16.0384 13.3 17.4883 13.3 19C13.3 20.5117 13.9005 21.9616 14.9695 23.0305C16.0384 24.0995 17.4883 24.7 19 24.7C20.5117 24.7 21.9616 24.0995 23.0305 23.0305C24.0995 21.9616 24.7 20.5117 24.7 19C24.7 17.4883 24.0995 16.0384 23.0305 14.9695C21.9616 13.9005 20.5117 13.3 19 13.3Z" fill="#5B5B5B"/>
</svg>
